# xmcd
#
# Track frame offsets: 
#        150
#        11127
#        22217
#        33910
#        47702
#        59567
#        70560
#        81905
#        93047
#        102585
#        114192
#        123872
#        137662
#        148280
#        158522
#        170790
#        188805
#        208012
#        235852
#        255762
#        270092
#        286930
#        303290
#        320050
#        334127
#
# Disc length: 4665 seconds
#
# Revision: 4
# Processed by: cddbd v1.5.2PL0 Copyright (c) Steve Scherf et al.
# Submitted via: ExactAudioCopy v0.99pb5
#
DISCID=5b123719
DTITLE=Screamin' Jay Hawkins - Portrait Of A Man
DYEAR=1900
DGENRE=Blues
TTITLE0=Little Demon
TTITLE1=I Put A Spell On You
TTITLE2=Baptize Me In Wine
TTITLE3=Not Anymore
TTITLE4=I Hear Voices
TTITLE5=Just Don't Care
TTITLE6=Ashes
TTITLE7=There's Something Wrong With You
TTITLE8=Strange
TTITLE9=The Whammy
TTITLE10=All Night
TTITLE11=Poor Folks
TTITLE12=Your Kind Of Love
TTITLE13=Mountain Jive
TTITLE14=Voodoo
TTITLE15=You Put The Spell On Me
TTITLE16=Portrait Of A Man
TTITLE17=Ol' Man River
TTITLE18=Heart Attack And Vine
TTITLE19=I Don't Know
TTITLE20=Don't Deceive Me
TTITLE21=Whistling Past The Graveyard
TTITLE22=Armpit No.6
TTITLE23=I Put A Spell On You
TTITLE24=Scream The Blues
EXTD=
EXTT0=
EXTT1=
EXTT2=
EXTT3=
EXTT4=
EXTT5=
EXTT6=
EXTT7=
EXTT8=
EXTT9=
EXTT10=
EXTT11=
EXTT12=
EXTT13=
EXTT14=
EXTT15=
EXTT16=
EXTT17=
EXTT18=
EXTT19=
EXTT20=
EXTT21=
EXTT22=
EXTT23=1979 version\n
EXTT24=
PLAYORDER=
